# xmcd
#
# Track frame offsets:
# 150
# 15040
# 30207
# 43722
# 51747
# 66163
# 81057
# 94944
# 108267
# 122262
#
# Disc length: 1840 seconds
#
# Revision: 0
# Processed by: cddbd v1.5.1PL2 Copyright (c) Steve Scherf et al.
# Submitted via: Audion 3.0.2 (http://www.panic.com/audion/)
#
DISCID=6f072e0a
DTITLE=Billie Holiday - Lover Man
DYEAR=1900
DGENRE=
TTITLE0=Lover Man
TTITLE1=Tenderly
TTITLE2=The way You Look Tonight
TTITLE3=Them There Eyes (Live)
TTITLE4=If You Were Mine
TTITLE5=Lover Come Back To Me
TTITLE6=The Man I Love
TTITLE7=What A Little Moonlight Can Do
TTITLE8=Billie's Blues
TTITLE9=You're My Thrill (Live)
EXTD=
EXTT0=
EXTT1=
EXTT2=
EXTT3=
EXTT4=
EXTT5=
EXTT6=
EXTT7=
EXTT8=
EXTT9=
PLAYORDER=
